# xmcd
#
# Track frame offsets:
#	150
#	11397
#	22295
#	34500
#	47742
#	69212
#	86242
#	98335
#	110072
#	124650
#	138422
#	158210
#
# Disc length: 2264 seconds
#
# Revision: 1
# Processed by: cddbd v1.5.2PL0 Copyright (c) Steve Scherf et al.
# Submitted via: audiograbber 1.83.01
#
DISCID=9508d60c
DTITLE=Chad Davis - Looking For My Place
DYEAR=2006
DGENRE=Bluegrass
TTITLE0=Midnight Flyer (Larry Stephenson lead)
TTITLE1=A Thousand Miles Away (Bethany Dick lead)
TTITLE2=Ballad of the Turquoise Vinyl Couch (inst)
TTITLE3=Little Bessie (featuring Jimmy Bowen)
TTITLE4=Shelly's Winter Love (Larry Stephenson lead)
TTITLE5=Last Thing On My Mind (featuring Sammy Stout)
TTITLE6=Tender Foot (inst)
TTITLE7=Little Willie (featuring Becky Buller)
TTITLE8=Why Don't You Tell Me So? (featuring Jimmy Bowen)
TTITLE9=Job (featuring Sandy Swift)
TTITLE10=Looking For My Place (inst)
TTITLE11=Too Ofetn Left Alone (featuring Dustin Benson)
EXTD=
EXTT0=
EXTT1=
EXTT2=
EXTT3=
EXTT4=
EXTT5=
EXTT6=
EXTT7=
EXTT8=
EXTT9=
EXTT10=
EXTT11=
PLAYORDER=
